<?xml version="1.0" encoding="UTF-8"?>
<svg xmlns="http://www.w3.org/2000/svg" viewBox="0 0 1200 800" role="img" aria-label="color-pop">
  <defs>
    <linearGradient id="g" x1="0" y1="0" x2="1" y2="1">
      <stop offset="0%" stop-color="#ff2f6d" />
      <stop offset="52%" stop-color="#00d1ff" />
      <stop offset="100%" stop-color="#ffe74a" />
    </linearGradient>
    <filter id="blur" x="-20%" y="-20%" width="140%" height="140%">
      <feGaussianBlur stdDeviation="18" />
    </filter>
  </defs>

  <rect width="1200" height="800" fill="url(#g)" />
  <g filter="url(#blur)">
    <circle cx="81" cy="102" r="157" fill="#00d1ff" opacity="0.173" />
    <circle cx="328" cy="241" r="171" fill="#ff2f6d" opacity="0.208" />
    <circle cx="228" cy="759" r="110" fill="#ffe74a" opacity="0.210" />
    <circle cx="757" cy="378" r="151" fill="#00d1ff" opacity="0.192" />
    <circle cx="422" cy="30" r="146" fill="#ff2f6d" opacity="0.165" />
    <circle cx="880" cy="370" r="64" fill="#00d1ff" opacity="0.133" />
    <circle cx="471" cy="629" r="50" fill="#ff2f6d" opacity="0.260" />
    <circle cx="399" cy="342" r="87" fill="#00d1ff" opacity="0.164" />
    <circle cx="774" cy="113" r="173" fill="#ffe74a" opacity="0.079" />
    <circle cx="958" cy="657" r="185" fill="#ffe74a" opacity="0.073" />
    <circle cx="237" cy="400" r="46" fill="#ff2f6d" opacity="0.157" />
    <circle cx="22" cy="374" r="126" fill="#ffe74a" opacity="0.077" />
    <circle cx="582" cy="658" r="157" fill="#00d1ff" opacity="0.237" />
    <circle cx="934" cy="493" r="146" fill="#ffe74a" opacity="0.154" />
    <circle cx="1181" cy="793" r="109" fill="#00d1ff" opacity="0.174" />
    <circle cx="466" cy="142" r="105" fill="#00d1ff" opacity="0.199" />
    <circle cx="234" cy="618" r="125" fill="#ff2f6d" opacity="0.248" />
    <circle cx="313" cy="306" r="200" fill="#ff2f6d" opacity="0.264" />
    <circle cx="455" cy="168" r="97" fill="#ffe74a" opacity="0.243" />
    <circle cx="212" cy="356" r="47" fill="#ff2f6d" opacity="0.126" />
  </g>
  <g>
    <path d="M 13 425 Q 275 701 1186 346" stroke="#ffe74a" stroke-width="3.90" fill="none" opacity="0.224" stroke-linecap="round" />
    <path d="M 337 748 Q 72 567 381 161" stroke="#ffe74a" stroke-width="4.14" fill="none" opacity="0.409" stroke-linecap="round" />
    <path d="M 4 745 Q 93 3 442 193" stroke="#ffe74a" stroke-width="3.76" fill="none" opacity="0.382" stroke-linecap="round" />
    <path d="M 619 230 Q 1118 329 461 546" stroke="#ff2f6d" stroke-width="4.74" fill="none" opacity="0.338" stroke-linecap="round" />
    <path d="M 819 724 Q 1031 271 182 606" stroke="#ffe74a" stroke-width="5.48" fill="none" opacity="0.278" stroke-linecap="round" />
    <path d="M 216 502 Q 56 526 956 368" stroke="#ff2f6d" stroke-width="3.73" fill="none" opacity="0.346" stroke-linecap="round" />
    <path d="M 305 120 Q 410 577 180 506" stroke="#ff2f6d" stroke-width="6.90" fill="none" opacity="0.192" stroke-linecap="round" />
    <path d="M 595 572 Q 155 372 193 554" stroke="#ff2f6d" stroke-width="5.85" fill="none" opacity="0.289" stroke-linecap="round" />
  </g>
  <rect width="1200" height="800" fill="rgba(255,255,255,0.03)" />
</svg>
