<?xml version="1.0" encoding="UTF-8"?>
<svg xmlns="http://www.w3.org/2000/svg" viewBox="0 0 1200 800" role="img" aria-label="conceptual-idea">
  <defs>
    <linearGradient id="g" x1="0" y1="0" x2="1" y2="1">
      <stop offset="0%" stop-color="#141414" />
      <stop offset="52%" stop-color="#4a4a4a" />
      <stop offset="100%" stop-color="#f2f2f2" />
    </linearGradient>
    <filter id="blur" x="-20%" y="-20%" width="140%" height="140%">
      <feGaussianBlur stdDeviation="18" />
    </filter>
  </defs>

  <rect width="1200" height="800" fill="url(#g)" />
  <g filter="url(#blur)">
    <circle cx="608" cy="576" r="91" fill="#141414" opacity="0.117" />
    <circle cx="12" cy="728" r="158" fill="#4a4a4a" opacity="0.112" />
    <circle cx="744" cy="104" r="97" fill="#4a4a4a" opacity="0.212" />
    <circle cx="229" cy="257" r="165" fill="#4a4a4a" opacity="0.231" />
    <circle cx="499" cy="93" r="140" fill="#f2f2f2" opacity="0.158" />
    <circle cx="99" cy="340" r="100" fill="#141414" opacity="0.199" />
    <circle cx="190" cy="24" r="154" fill="#141414" opacity="0.137" />
    <circle cx="612" cy="205" r="100" fill="#141414" opacity="0.087" />
    <circle cx="298" cy="2" r="142" fill="#f2f2f2" opacity="0.230" />
    <circle cx="652" cy="375" r="76" fill="#f2f2f2" opacity="0.244" />
    <circle cx="346" cy="353" r="42" fill="#141414" opacity="0.214" />
    <circle cx="706" cy="477" r="93" fill="#4a4a4a" opacity="0.189" />
    <circle cx="871" cy="526" r="122" fill="#f2f2f2" opacity="0.198" />
    <circle cx="765" cy="405" r="140" fill="#141414" opacity="0.158" />
    <circle cx="89" cy="79" r="204" fill="#f2f2f2" opacity="0.239" />
    <circle cx="985" cy="131" r="124" fill="#4a4a4a" opacity="0.139" />
    <circle cx="1096" cy="424" r="55" fill="#141414" opacity="0.265" />
    <circle cx="556" cy="237" r="149" fill="#4a4a4a" opacity="0.082" />
    <circle cx="788" cy="281" r="85" fill="#4a4a4a" opacity="0.150" />
    <circle cx="102" cy="534" r="75" fill="#141414" opacity="0.251" />
  </g>
  <g>
    <path d="M 1032 153 Q 880 628 344 576" stroke="#4a4a4a" stroke-width="3.11" fill="none" opacity="0.472" stroke-linecap="round" />
    <path d="M 346 586 Q 297 222 1020 382" stroke="#f2f2f2" stroke-width="2.61" fill="none" opacity="0.223" stroke-linecap="round" />
    <path d="M 389 444 Q 55 722 641 630" stroke="#4a4a4a" stroke-width="6.41" fill="none" opacity="0.478" stroke-linecap="round" />
    <path d="M 388 298 Q 1111 729 623 24" stroke="#f2f2f2" stroke-width="5.34" fill="none" opacity="0.349" stroke-linecap="round" />
    <path d="M 656 745 Q 818 365 378 62" stroke="#4a4a4a" stroke-width="2.42" fill="none" opacity="0.337" stroke-linecap="round" />
    <path d="M 341 602 Q 65 306 401 751" stroke="#f2f2f2" stroke-width="3.60" fill="none" opacity="0.416" stroke-linecap="round" />
    <path d="M 417 137 Q 833 392 200 482" stroke="#f2f2f2" stroke-width="7.16" fill="none" opacity="0.497" stroke-linecap="round" />
    <path d="M 126 521 Q 682 766 767 300" stroke="#4a4a4a" stroke-width="2.98" fill="none" opacity="0.383" stroke-linecap="round" />
  </g>
  <rect width="1200" height="800" fill="rgba(255,255,255,0.03)" />
</svg>
