<?xml version="1.0" encoding="UTF-8"?>
<svg xmlns="http://www.w3.org/2000/svg" viewBox="0 0 1200 800" role="img" aria-label="dark-grotesque">
  <defs>
    <linearGradient id="g" x1="0" y1="0" x2="1" y2="1">
      <stop offset="0%" stop-color="#0d0d0d" />
      <stop offset="52%" stop-color="#4a0f1a" />
      <stop offset="100%" stop-color="#b94a5f" />
    </linearGradient>
    <filter id="blur" x="-20%" y="-20%" width="140%" height="140%">
      <feGaussianBlur stdDeviation="18" />
    </filter>
  </defs>

  <rect width="1200" height="800" fill="url(#g)" />
  <g filter="url(#blur)">
    <circle cx="437" cy="515" r="203" fill="#b94a5f" opacity="0.106" />
    <circle cx="749" cy="205" r="208" fill="#0d0d0d" opacity="0.199" />
    <circle cx="78" cy="691" r="195" fill="#b94a5f" opacity="0.211" />
    <circle cx="820" cy="432" r="169" fill="#b94a5f" opacity="0.239" />
    <circle cx="532" cy="503" r="95" fill="#4a0f1a" opacity="0.222" />
    <circle cx="186" cy="771" r="143" fill="#4a0f1a" opacity="0.234" />
    <circle cx="126" cy="480" r="144" fill="#0d0d0d" opacity="0.095" />
    <circle cx="389" cy="596" r="88" fill="#b94a5f" opacity="0.125" />
    <circle cx="616" cy="340" r="110" fill="#4a0f1a" opacity="0.200" />
    <circle cx="1021" cy="554" r="52" fill="#4a0f1a" opacity="0.246" />
    <circle cx="100" cy="441" r="213" fill="#0d0d0d" opacity="0.087" />
    <circle cx="52" cy="776" r="171" fill="#b94a5f" opacity="0.163" />
    <circle cx="804" cy="493" r="115" fill="#b94a5f" opacity="0.109" />
    <circle cx="63" cy="707" r="51" fill="#0d0d0d" opacity="0.221" />
    <circle cx="1157" cy="294" r="116" fill="#4a0f1a" opacity="0.195" />
    <circle cx="344" cy="565" r="148" fill="#0d0d0d" opacity="0.190" />
    <circle cx="334" cy="523" r="119" fill="#b94a5f" opacity="0.248" />
    <circle cx="384" cy="157" r="88" fill="#4a0f1a" opacity="0.086" />
    <circle cx="588" cy="690" r="52" fill="#4a0f1a" opacity="0.250" />
    <circle cx="604" cy="181" r="78" fill="#b94a5f" opacity="0.187" />
  </g>
  <g>
    <path d="M 294 392 Q 932 519 264 344" stroke="#b94a5f" stroke-width="8.50" fill="none" opacity="0.212" stroke-linecap="round" />
    <path d="M 131 354 Q 552 600 288 766" stroke="#0d0d0d" stroke-width="5.87" fill="none" opacity="0.222" stroke-linecap="round" />
    <path d="M 841 471 Q 255 534 269 187" stroke="#4a0f1a" stroke-width="3.29" fill="none" opacity="0.307" stroke-linecap="round" />
    <path d="M 1181 295 Q 626 186 70 656" stroke="#0d0d0d" stroke-width="8.00" fill="none" opacity="0.374" stroke-linecap="round" />
    <path d="M 807 429 Q 301 259 206 305" stroke="#b94a5f" stroke-width="2.00" fill="none" opacity="0.249" stroke-linecap="round" />
    <path d="M 293 516 Q 727 241 1039 262" stroke="#0d0d0d" stroke-width="1.70" fill="none" opacity="0.368" stroke-linecap="round" />
    <path d="M 16 179 Q 206 79 741 242" stroke="#0d0d0d" stroke-width="7.42" fill="none" opacity="0.370" stroke-linecap="round" />
    <path d="M 804 92 Q 801 467 553 32" stroke="#0d0d0d" stroke-width="7.49" fill="none" opacity="0.363" stroke-linecap="round" />
  </g>
  <rect width="1200" height="800" fill="rgba(255,255,255,0.03)" />
</svg>
