<?xml version="1.0" encoding="UTF-8"?>
<svg xmlns="http://www.w3.org/2000/svg" viewBox="0 0 1200 800" role="img" aria-label="figurative-realism">
  <defs>
    <linearGradient id="g" x1="0" y1="0" x2="1" y2="1">
      <stop offset="0%" stop-color="#26211b" />
      <stop offset="52%" stop-color="#7f5f4a" />
      <stop offset="100%" stop-color="#d8c2a9" />
    </linearGradient>
    <filter id="blur" x="-20%" y="-20%" width="140%" height="140%">
      <feGaussianBlur stdDeviation="18" />
    </filter>
  </defs>

  <rect width="1200" height="800" fill="url(#g)" />
  <g filter="url(#blur)">
    <circle cx="108" cy="285" r="49" fill="#7f5f4a" opacity="0.240" />
    <circle cx="1043" cy="16" r="117" fill="#d8c2a9" opacity="0.075" />
    <circle cx="527" cy="678" r="182" fill="#26211b" opacity="0.255" />
    <circle cx="463" cy="240" r="142" fill="#d8c2a9" opacity="0.136" />
    <circle cx="516" cy="140" r="160" fill="#26211b" opacity="0.104" />
    <circle cx="656" cy="741" r="198" fill="#d8c2a9" opacity="0.135" />
    <circle cx="778" cy="680" r="208" fill="#d8c2a9" opacity="0.133" />
    <circle cx="709" cy="104" r="86" fill="#d8c2a9" opacity="0.132" />
    <circle cx="272" cy="666" r="180" fill="#d8c2a9" opacity="0.093" />
    <circle cx="980" cy="90" r="73" fill="#d8c2a9" opacity="0.137" />
    <circle cx="690" cy="466" r="94" fill="#d8c2a9" opacity="0.201" />
    <circle cx="440" cy="4" r="123" fill="#7f5f4a" opacity="0.209" />
    <circle cx="845" cy="144" r="125" fill="#7f5f4a" opacity="0.101" />
    <circle cx="583" cy="573" r="150" fill="#26211b" opacity="0.194" />
    <circle cx="129" cy="13" r="206" fill="#d8c2a9" opacity="0.091" />
    <circle cx="635" cy="569" r="106" fill="#7f5f4a" opacity="0.168" />
    <circle cx="591" cy="273" r="203" fill="#d8c2a9" opacity="0.136" />
    <circle cx="537" cy="469" r="105" fill="#26211b" opacity="0.161" />
    <circle cx="223" cy="346" r="214" fill="#7f5f4a" opacity="0.249" />
    <circle cx="352" cy="117" r="59" fill="#7f5f4a" opacity="0.210" />
  </g>
  <g>
    <path d="M 389 196 Q 102 718 777 103" stroke="#26211b" stroke-width="4.39" fill="none" opacity="0.216" stroke-linecap="round" />
    <path d="M 929 532 Q 81 36 202 561" stroke="#7f5f4a" stroke-width="2.87" fill="none" opacity="0.383" stroke-linecap="round" />
    <path d="M 812 606 Q 103 336 694 408" stroke="#7f5f4a" stroke-width="2.51" fill="none" opacity="0.210" stroke-linecap="round" />
    <path d="M 929 237 Q 1080 436 889 624" stroke="#7f5f4a" stroke-width="1.03" fill="none" opacity="0.343" stroke-linecap="round" />
    <path d="M 164 340 Q 328 184 804 578" stroke="#7f5f4a" stroke-width="2.83" fill="none" opacity="0.168" stroke-linecap="round" />
    <path d="M 997 90 Q 455 217 314 73" stroke="#d8c2a9" stroke-width="4.31" fill="none" opacity="0.157" stroke-linecap="round" />
    <path d="M 341 787 Q 429 369 95 702" stroke="#26211b" stroke-width="5.88" fill="none" opacity="0.203" stroke-linecap="round" />
    <path d="M 150 677 Q 925 199 536 402" stroke="#26211b" stroke-width="1.74" fill="none" opacity="0.498" stroke-linecap="round" />
  </g>
  <rect width="1200" height="800" fill="rgba(255,255,255,0.03)" />
</svg>
