<?xml version="1.0" encoding="UTF-8"?>
<svg xmlns="http://www.w3.org/2000/svg" viewBox="0 0 1200 800" role="img" aria-label="light-space">
  <defs>
    <linearGradient id="g" x1="0" y1="0" x2="1" y2="1">
      <stop offset="0%" stop-color="#0f1d2e" />
      <stop offset="52%" stop-color="#4d86ff" />
      <stop offset="100%" stop-color="#e1f2ff" />
    </linearGradient>
    <filter id="blur" x="-20%" y="-20%" width="140%" height="140%">
      <feGaussianBlur stdDeviation="18" />
    </filter>
  </defs>

  <rect width="1200" height="800" fill="url(#g)" />
  <g filter="url(#blur)">
    <circle cx="1130" cy="49" r="173" fill="#e1f2ff" opacity="0.078" />
    <circle cx="784" cy="735" r="139" fill="#e1f2ff" opacity="0.129" />
    <circle cx="1110" cy="716" r="57" fill="#0f1d2e" opacity="0.198" />
    <circle cx="362" cy="151" r="154" fill="#0f1d2e" opacity="0.246" />
    <circle cx="561" cy="31" r="178" fill="#e1f2ff" opacity="0.121" />
    <circle cx="708" cy="391" r="50" fill="#e1f2ff" opacity="0.268" />
    <circle cx="807" cy="160" r="69" fill="#0f1d2e" opacity="0.111" />
    <circle cx="691" cy="591" r="201" fill="#0f1d2e" opacity="0.203" />
    <circle cx="848" cy="114" r="61" fill="#e1f2ff" opacity="0.076" />
    <circle cx="830" cy="527" r="50" fill="#e1f2ff" opacity="0.162" />
    <circle cx="4" cy="74" r="170" fill="#0f1d2e" opacity="0.259" />
    <circle cx="1067" cy="143" r="219" fill="#0f1d2e" opacity="0.192" />
    <circle cx="258" cy="760" r="120" fill="#4d86ff" opacity="0.242" />
    <circle cx="186" cy="206" r="107" fill="#0f1d2e" opacity="0.255" />
    <circle cx="13" cy="710" r="97" fill="#4d86ff" opacity="0.151" />
    <circle cx="278" cy="392" r="125" fill="#e1f2ff" opacity="0.077" />
    <circle cx="687" cy="156" r="137" fill="#0f1d2e" opacity="0.235" />
    <circle cx="1186" cy="326" r="64" fill="#4d86ff" opacity="0.266" />
    <circle cx="1119" cy="435" r="164" fill="#4d86ff" opacity="0.089" />
    <circle cx="106" cy="219" r="51" fill="#4d86ff" opacity="0.105" />
  </g>
  <g>
    <path d="M 1139 454 Q 1196 335 648 613" stroke="#e1f2ff" stroke-width="3.04" fill="none" opacity="0.247" stroke-linecap="round" />
    <path d="M 1127 513 Q 627 757 692 191" stroke="#0f1d2e" stroke-width="1.64" fill="none" opacity="0.428" stroke-linecap="round" />
    <path d="M 227 51 Q 1005 71 1057 270" stroke="#0f1d2e" stroke-width="4.42" fill="none" opacity="0.223" stroke-linecap="round" />
    <path d="M 594 370 Q 406 756 24 609" stroke="#e1f2ff" stroke-width="3.00" fill="none" opacity="0.426" stroke-linecap="round" />
    <path d="M 1119 739 Q 80 287 368 303" stroke="#4d86ff" stroke-width="3.17" fill="none" opacity="0.169" stroke-linecap="round" />
    <path d="M 915 703 Q 120 738 780 507" stroke="#0f1d2e" stroke-width="4.52" fill="none" opacity="0.477" stroke-linecap="round" />
    <path d="M 163 706 Q 887 163 6 352" stroke="#0f1d2e" stroke-width="3.88" fill="none" opacity="0.484" stroke-linecap="round" />
    <path d="M 599 73 Q 252 750 662 184" stroke="#0f1d2e" stroke-width="7.03" fill="none" opacity="0.174" stroke-linecap="round" />
  </g>
  <rect width="1200" height="800" fill="rgba(255,255,255,0.03)" />
</svg>
