<?xml version="1.0" encoding="UTF-8"?>
<svg xmlns="http://www.w3.org/2000/svg" viewBox="0 0 1200 800" role="img" aria-label="meditative-poetic">
  <defs>
    <linearGradient id="g" x1="0" y1="0" x2="1" y2="1">
      <stop offset="0%" stop-color="#0f1a25" />
      <stop offset="52%" stop-color="#3a5f7f" />
      <stop offset="100%" stop-color="#bcd4e6" />
    </linearGradient>
    <filter id="blur" x="-20%" y="-20%" width="140%" height="140%">
      <feGaussianBlur stdDeviation="18" />
    </filter>
  </defs>

  <rect width="1200" height="800" fill="url(#g)" />
  <g filter="url(#blur)">
    <circle cx="935" cy="472" r="99" fill="#3a5f7f" opacity="0.079" />
    <circle cx="491" cy="128" r="167" fill="#3a5f7f" opacity="0.195" />
    <circle cx="1178" cy="365" r="98" fill="#0f1a25" opacity="0.105" />
    <circle cx="447" cy="2" r="72" fill="#0f1a25" opacity="0.207" />
    <circle cx="938" cy="52" r="51" fill="#3a5f7f" opacity="0.220" />
    <circle cx="760" cy="111" r="85" fill="#0f1a25" opacity="0.266" />
    <circle cx="21" cy="792" r="147" fill="#bcd4e6" opacity="0.262" />
    <circle cx="316" cy="579" r="195" fill="#0f1a25" opacity="0.137" />
    <circle cx="752" cy="550" r="192" fill="#0f1a25" opacity="0.172" />
    <circle cx="356" cy="266" r="64" fill="#bcd4e6" opacity="0.224" />
    <circle cx="793" cy="670" r="148" fill="#3a5f7f" opacity="0.259" />
    <circle cx="225" cy="157" r="82" fill="#bcd4e6" opacity="0.088" />
    <circle cx="239" cy="332" r="49" fill="#0f1a25" opacity="0.109" />
    <circle cx="680" cy="457" r="192" fill="#bcd4e6" opacity="0.138" />
    <circle cx="1083" cy="791" r="42" fill="#0f1a25" opacity="0.082" />
    <circle cx="688" cy="272" r="116" fill="#bcd4e6" opacity="0.177" />
    <circle cx="123" cy="330" r="135" fill="#3a5f7f" opacity="0.258" />
    <circle cx="1002" cy="622" r="44" fill="#0f1a25" opacity="0.165" />
    <circle cx="985" cy="588" r="49" fill="#0f1a25" opacity="0.186" />
    <circle cx="98" cy="395" r="219" fill="#bcd4e6" opacity="0.248" />
  </g>
  <g>
    <path d="M 899 651 Q 462 115 397 332" stroke="#3a5f7f" stroke-width="1.28" fill="none" opacity="0.362" stroke-linecap="round" />
    <path d="M 951 373 Q 208 37 800 662" stroke="#0f1a25" stroke-width="2.50" fill="none" opacity="0.365" stroke-linecap="round" />
    <path d="M 323 425 Q 710 95 760 207" stroke="#0f1a25" stroke-width="1.02" fill="none" opacity="0.366" stroke-linecap="round" />
    <path d="M 985 588 Q 769 519 1093 80" stroke="#0f1a25" stroke-width="7.40" fill="none" opacity="0.165" stroke-linecap="round" />
    <path d="M 228 527 Q 1156 609 173 610" stroke="#bcd4e6" stroke-width="7.81" fill="none" opacity="0.261" stroke-linecap="round" />
    <path d="M 358 762 Q 96 60 858 551" stroke="#0f1a25" stroke-width="3.19" fill="none" opacity="0.262" stroke-linecap="round" />
    <path d="M 727 455 Q 622 689 89 275" stroke="#0f1a25" stroke-width="7.98" fill="none" opacity="0.255" stroke-linecap="round" />
    <path d="M 670 634 Q 602 304 268 6" stroke="#bcd4e6" stroke-width="7.25" fill="none" opacity="0.244" stroke-linecap="round" />
  </g>
  <rect width="1200" height="800" fill="rgba(255,255,255,0.03)" />
</svg>
