<?xml version="1.0" encoding="UTF-8"?>
<svg xmlns="http://www.w3.org/2000/svg" viewBox="0 0 1200 800" role="img" aria-label="narrative-scene">
  <defs>
    <linearGradient id="g" x1="0" y1="0" x2="1" y2="1">
      <stop offset="0%" stop-color="#19253d" />
      <stop offset="52%" stop-color="#3f6c9a" />
      <stop offset="100%" stop-color="#e4b56e" />
    </linearGradient>
    <filter id="blur" x="-20%" y="-20%" width="140%" height="140%">
      <feGaussianBlur stdDeviation="18" />
    </filter>
  </defs>

  <rect width="1200" height="800" fill="url(#g)" />
  <g filter="url(#blur)">
    <circle cx="721" cy="145" r="122" fill="#3f6c9a" opacity="0.142" />
    <circle cx="995" cy="173" r="202" fill="#e4b56e" opacity="0.091" />
    <circle cx="543" cy="761" r="47" fill="#e4b56e" opacity="0.247" />
    <circle cx="32" cy="354" r="85" fill="#19253d" opacity="0.235" />
    <circle cx="233" cy="78" r="150" fill="#e4b56e" opacity="0.097" />
    <circle cx="154" cy="361" r="80" fill="#19253d" opacity="0.189" />
    <circle cx="673" cy="761" r="96" fill="#e4b56e" opacity="0.170" />
    <circle cx="1136" cy="296" r="174" fill="#19253d" opacity="0.204" />
    <circle cx="538" cy="144" r="170" fill="#e4b56e" opacity="0.140" />
    <circle cx="197" cy="68" r="124" fill="#19253d" opacity="0.243" />
    <circle cx="1093" cy="269" r="55" fill="#19253d" opacity="0.100" />
    <circle cx="29" cy="384" r="96" fill="#3f6c9a" opacity="0.241" />
    <circle cx="267" cy="359" r="89" fill="#3f6c9a" opacity="0.089" />
    <circle cx="204" cy="301" r="188" fill="#3f6c9a" opacity="0.104" />
    <circle cx="1153" cy="713" r="172" fill="#3f6c9a" opacity="0.179" />
    <circle cx="272" cy="247" r="171" fill="#3f6c9a" opacity="0.187" />
    <circle cx="463" cy="734" r="211" fill="#3f6c9a" opacity="0.112" />
    <circle cx="763" cy="532" r="94" fill="#3f6c9a" opacity="0.153" />
    <circle cx="718" cy="600" r="163" fill="#3f6c9a" opacity="0.173" />
    <circle cx="32" cy="389" r="187" fill="#3f6c9a" opacity="0.197" />
  </g>
  <g>
    <path d="M 620 450 Q 751 217 1097 330" stroke="#e4b56e" stroke-width="3.11" fill="none" opacity="0.366" stroke-linecap="round" />
    <path d="M 884 234 Q 1118 599 384 616" stroke="#19253d" stroke-width="3.62" fill="none" opacity="0.379" stroke-linecap="round" />
    <path d="M 639 634 Q 773 652 606 543" stroke="#e4b56e" stroke-width="7.13" fill="none" opacity="0.362" stroke-linecap="round" />
    <path d="M 720 240 Q 642 629 369 533" stroke="#3f6c9a" stroke-width="1.19" fill="none" opacity="0.458" stroke-linecap="round" />
    <path d="M 1128 531 Q 621 796 990 327" stroke="#19253d" stroke-width="6.96" fill="none" opacity="0.363" stroke-linecap="round" />
    <path d="M 674 94 Q 369 100 373 661" stroke="#e4b56e" stroke-width="5.70" fill="none" opacity="0.223" stroke-linecap="round" />
    <path d="M 504 785 Q 555 713 128 398" stroke="#e4b56e" stroke-width="3.07" fill="none" opacity="0.299" stroke-linecap="round" />
    <path d="M 477 503 Q 460 57 1123 356" stroke="#19253d" stroke-width="3.65" fill="none" opacity="0.198" stroke-linecap="round" />
  </g>
  <rect width="1200" height="800" fill="rgba(255,255,255,0.03)" />
</svg>
