<?xml version="1.0" encoding="UTF-8"?>
<svg xmlns="http://www.w3.org/2000/svg" viewBox="0 0 1200 800" role="img" aria-label="new-media-tech">
  <defs>
    <linearGradient id="g" x1="0" y1="0" x2="1" y2="1">
      <stop offset="0%" stop-color="#0a1022" />
      <stop offset="52%" stop-color="#00b8ff" />
      <stop offset="100%" stop-color="#a8fff1" />
    </linearGradient>
    <filter id="blur" x="-20%" y="-20%" width="140%" height="140%">
      <feGaussianBlur stdDeviation="18" />
    </filter>
  </defs>

  <rect width="1200" height="800" fill="url(#g)" />
  <g filter="url(#blur)">
    <circle cx="623" cy="567" r="97" fill="#a8fff1" opacity="0.092" />
    <circle cx="748" cy="105" r="140" fill="#a8fff1" opacity="0.082" />
    <circle cx="464" cy="763" r="175" fill="#00b8ff" opacity="0.083" />
    <circle cx="19" cy="259" r="124" fill="#a8fff1" opacity="0.184" />
    <circle cx="118" cy="649" r="70" fill="#0a1022" opacity="0.176" />
    <circle cx="440" cy="150" r="83" fill="#00b8ff" opacity="0.160" />
    <circle cx="277" cy="689" r="218" fill="#a8fff1" opacity="0.233" />
    <circle cx="607" cy="558" r="199" fill="#a8fff1" opacity="0.235" />
    <circle cx="235" cy="570" r="102" fill="#a8fff1" opacity="0.135" />
    <circle cx="1019" cy="539" r="83" fill="#0a1022" opacity="0.181" />
    <circle cx="933" cy="530" r="162" fill="#00b8ff" opacity="0.104" />
    <circle cx="122" cy="319" r="169" fill="#00b8ff" opacity="0.233" />
    <circle cx="339" cy="544" r="209" fill="#a8fff1" opacity="0.214" />
    <circle cx="1127" cy="322" r="70" fill="#0a1022" opacity="0.211" />
    <circle cx="103" cy="148" r="146" fill="#00b8ff" opacity="0.251" />
    <circle cx="1030" cy="744" r="124" fill="#0a1022" opacity="0.248" />
    <circle cx="241" cy="456" r="150" fill="#a8fff1" opacity="0.150" />
    <circle cx="929" cy="798" r="57" fill="#0a1022" opacity="0.226" />
    <circle cx="761" cy="249" r="123" fill="#00b8ff" opacity="0.152" />
    <circle cx="150" cy="135" r="170" fill="#0a1022" opacity="0.251" />
  </g>
  <g>
    <path d="M 439 420 Q 192 146 850 678" stroke="#a8fff1" stroke-width="7.31" fill="none" opacity="0.364" stroke-linecap="round" />
    <path d="M 275 380 Q 135 217 617 360" stroke="#00b8ff" stroke-width="7.15" fill="none" opacity="0.193" stroke-linecap="round" />
    <path d="M 686 331 Q 781 682 120 665" stroke="#0a1022" stroke-width="3.75" fill="none" opacity="0.424" stroke-linecap="round" />
    <path d="M 199 295 Q 890 76 47 417" stroke="#00b8ff" stroke-width="8.85" fill="none" opacity="0.201" stroke-linecap="round" />
    <path d="M 995 148 Q 700 561 549 200" stroke="#0a1022" stroke-width="6.65" fill="none" opacity="0.210" stroke-linecap="round" />
    <path d="M 1154 102 Q 884 138 27 29" stroke="#0a1022" stroke-width="1.96" fill="none" opacity="0.176" stroke-linecap="round" />
    <path d="M 202 43 Q 804 421 849 77" stroke="#a8fff1" stroke-width="2.66" fill="none" opacity="0.456" stroke-linecap="round" />
    <path d="M 554 614 Q 1090 351 927 276" stroke="#0a1022" stroke-width="5.91" fill="none" opacity="0.434" stroke-linecap="round" />
  </g>
  <rect width="1200" height="800" fill="rgba(255,255,255,0.03)" />
</svg>
