<?xml version="1.0" encoding="UTF-8"?>
<svg xmlns="http://www.w3.org/2000/svg" viewBox="0 0 1200 800" role="img" aria-label="object-installation">
  <defs>
    <linearGradient id="g" x1="0" y1="0" x2="1" y2="1">
      <stop offset="0%" stop-color="#121826" />
      <stop offset="52%" stop-color="#516f9a" />
      <stop offset="100%" stop-color="#d9e8ff" />
    </linearGradient>
    <filter id="blur" x="-20%" y="-20%" width="140%" height="140%">
      <feGaussianBlur stdDeviation="18" />
    </filter>
  </defs>

  <rect width="1200" height="800" fill="url(#g)" />
  <g filter="url(#blur)">
    <circle cx="590" cy="43" r="181" fill="#516f9a" opacity="0.075" />
    <circle cx="978" cy="551" r="199" fill="#516f9a" opacity="0.208" />
    <circle cx="871" cy="585" r="86" fill="#121826" opacity="0.215" />
    <circle cx="475" cy="612" r="68" fill="#516f9a" opacity="0.202" />
    <circle cx="1118" cy="60" r="41" fill="#121826" opacity="0.178" />
    <circle cx="642" cy="726" r="212" fill="#d9e8ff" opacity="0.121" />
    <circle cx="384" cy="497" r="218" fill="#516f9a" opacity="0.103" />
    <circle cx="801" cy="360" r="183" fill="#121826" opacity="0.136" />
    <circle cx="1111" cy="457" r="171" fill="#121826" opacity="0.116" />
    <circle cx="568" cy="420" r="189" fill="#d9e8ff" opacity="0.126" />
    <circle cx="577" cy="15" r="188" fill="#d9e8ff" opacity="0.170" />
    <circle cx="148" cy="182" r="138" fill="#121826" opacity="0.203" />
    <circle cx="55" cy="148" r="43" fill="#516f9a" opacity="0.136" />
    <circle cx="49" cy="178" r="200" fill="#d9e8ff" opacity="0.102" />
    <circle cx="692" cy="457" r="214" fill="#516f9a" opacity="0.123" />
    <circle cx="321" cy="399" r="161" fill="#d9e8ff" opacity="0.089" />
    <circle cx="530" cy="61" r="168" fill="#121826" opacity="0.182" />
    <circle cx="1153" cy="212" r="171" fill="#d9e8ff" opacity="0.110" />
    <circle cx="9" cy="555" r="208" fill="#516f9a" opacity="0.141" />
    <circle cx="1076" cy="643" r="149" fill="#d9e8ff" opacity="0.201" />
  </g>
  <g>
    <path d="M 1114 239 Q 866 106 529 266" stroke="#d9e8ff" stroke-width="2.03" fill="none" opacity="0.325" stroke-linecap="round" />
    <path d="M 747 232 Q 506 123 576 195" stroke="#516f9a" stroke-width="3.84" fill="none" opacity="0.341" stroke-linecap="round" />
    <path d="M 529 520 Q 1185 79 335 262" stroke="#516f9a" stroke-width="8.79" fill="none" opacity="0.168" stroke-linecap="round" />
    <path d="M 704 552 Q 507 577 390 110" stroke="#d9e8ff" stroke-width="3.19" fill="none" opacity="0.360" stroke-linecap="round" />
    <path d="M 75 510 Q 32 592 278 89" stroke="#121826" stroke-width="7.48" fill="none" opacity="0.491" stroke-linecap="round" />
    <path d="M 680 308 Q 63 798 451 521" stroke="#121826" stroke-width="4.75" fill="none" opacity="0.174" stroke-linecap="round" />
    <path d="M 238 363 Q 309 44 918 226" stroke="#d9e8ff" stroke-width="6.20" fill="none" opacity="0.191" stroke-linecap="round" />
    <path d="M 394 190 Q 769 498 793 308" stroke="#d9e8ff" stroke-width="6.77" fill="none" opacity="0.194" stroke-linecap="round" />
  </g>
  <rect width="1200" height="800" fill="rgba(255,255,255,0.03)" />
</svg>
