<?xml version="1.0" encoding="UTF-8"?>
<svg xmlns="http://www.w3.org/2000/svg" viewBox="0 0 1200 800" role="img" aria-label="photo-documentary">
  <defs>
    <linearGradient id="g" x1="0" y1="0" x2="1" y2="1">
      <stop offset="0%" stop-color="#1a1a1a" />
      <stop offset="52%" stop-color="#5f5f5f" />
      <stop offset="100%" stop-color="#ececec" />
    </linearGradient>
    <filter id="blur" x="-20%" y="-20%" width="140%" height="140%">
      <feGaussianBlur stdDeviation="18" />
    </filter>
  </defs>

  <rect width="1200" height="800" fill="url(#g)" />
  <g filter="url(#blur)">
    <circle cx="1044" cy="781" r="139" fill="#1a1a1a" opacity="0.243" />
    <circle cx="367" cy="588" r="99" fill="#ececec" opacity="0.251" />
    <circle cx="1065" cy="714" r="194" fill="#5f5f5f" opacity="0.267" />
    <circle cx="204" cy="116" r="78" fill="#1a1a1a" opacity="0.092" />
    <circle cx="938" cy="7" r="140" fill="#ececec" opacity="0.184" />
    <circle cx="699" cy="664" r="192" fill="#5f5f5f" opacity="0.165" />
    <circle cx="1165" cy="309" r="170" fill="#ececec" opacity="0.191" />
    <circle cx="91" cy="455" r="182" fill="#1a1a1a" opacity="0.088" />
    <circle cx="156" cy="479" r="106" fill="#5f5f5f" opacity="0.205" />
    <circle cx="577" cy="97" r="46" fill="#1a1a1a" opacity="0.123" />
    <circle cx="789" cy="726" r="64" fill="#ececec" opacity="0.096" />
    <circle cx="1141" cy="32" r="94" fill="#1a1a1a" opacity="0.162" />
    <circle cx="728" cy="392" r="145" fill="#1a1a1a" opacity="0.152" />
    <circle cx="1099" cy="744" r="156" fill="#1a1a1a" opacity="0.105" />
    <circle cx="97" cy="93" r="43" fill="#5f5f5f" opacity="0.132" />
    <circle cx="1149" cy="403" r="174" fill="#ececec" opacity="0.074" />
    <circle cx="543" cy="425" r="114" fill="#1a1a1a" opacity="0.102" />
    <circle cx="588" cy="722" r="51" fill="#1a1a1a" opacity="0.239" />
    <circle cx="503" cy="460" r="109" fill="#ececec" opacity="0.253" />
    <circle cx="918" cy="379" r="44" fill="#5f5f5f" opacity="0.076" />
  </g>
  <g>
    <path d="M 145 458 Q 1017 265 718 186" stroke="#ececec" stroke-width="2.60" fill="none" opacity="0.250" stroke-linecap="round" />
    <path d="M 663 174 Q 946 224 383 493" stroke="#5f5f5f" stroke-width="2.19" fill="none" opacity="0.389" stroke-linecap="round" />
    <path d="M 170 677 Q 294 675 954 416" stroke="#ececec" stroke-width="3.78" fill="none" opacity="0.205" stroke-linecap="round" />
    <path d="M 115 5 Q 892 607 837 573" stroke="#5f5f5f" stroke-width="4.65" fill="none" opacity="0.351" stroke-linecap="round" />
    <path d="M 1187 777 Q 664 764 1012 176" stroke="#5f5f5f" stroke-width="2.75" fill="none" opacity="0.390" stroke-linecap="round" />
    <path d="M 174 33 Q 743 211 803 681" stroke="#ececec" stroke-width="2.04" fill="none" opacity="0.447" stroke-linecap="round" />
    <path d="M 423 740 Q 165 162 551 376" stroke="#1a1a1a" stroke-width="5.27" fill="none" opacity="0.378" stroke-linecap="round" />
    <path d="M 989 14 Q 982 195 857 328" stroke="#ececec" stroke-width="8.18" fill="none" opacity="0.449" stroke-linecap="round" />
  </g>
  <rect width="1200" height="800" fill="rgba(255,255,255,0.03)" />
</svg>
