<?xml version="1.0" encoding="UTF-8"?>
<svg xmlns="http://www.w3.org/2000/svg" viewBox="0 0 1200 800" role="img" aria-label="urban-street">
  <defs>
    <linearGradient id="g" x1="0" y1="0" x2="1" y2="1">
      <stop offset="0%" stop-color="#161616" />
      <stop offset="52%" stop-color="#4d4d4d" />
      <stop offset="100%" stop-color="#f97316" />
    </linearGradient>
    <filter id="blur" x="-20%" y="-20%" width="140%" height="140%">
      <feGaussianBlur stdDeviation="18" />
    </filter>
  </defs>

  <rect width="1200" height="800" fill="url(#g)" />
  <g filter="url(#blur)">
    <circle cx="198" cy="77" r="59" fill="#161616" opacity="0.203" />
    <circle cx="1180" cy="506" r="196" fill="#4d4d4d" opacity="0.259" />
    <circle cx="1114" cy="190" r="164" fill="#4d4d4d" opacity="0.147" />
    <circle cx="1031" cy="281" r="138" fill="#4d4d4d" opacity="0.172" />
    <circle cx="181" cy="310" r="153" fill="#f97316" opacity="0.167" />
    <circle cx="951" cy="771" r="139" fill="#f97316" opacity="0.250" />
    <circle cx="706" cy="689" r="129" fill="#f97316" opacity="0.137" />
    <circle cx="88" cy="432" r="53" fill="#161616" opacity="0.086" />
    <circle cx="742" cy="373" r="129" fill="#161616" opacity="0.140" />
    <circle cx="599" cy="442" r="42" fill="#f97316" opacity="0.085" />
    <circle cx="281" cy="662" r="204" fill="#161616" opacity="0.196" />
    <circle cx="405" cy="598" r="99" fill="#f97316" opacity="0.230" />
    <circle cx="4" cy="780" r="50" fill="#4d4d4d" opacity="0.178" />
    <circle cx="642" cy="269" r="52" fill="#161616" opacity="0.169" />
    <circle cx="974" cy="425" r="184" fill="#161616" opacity="0.242" />
    <circle cx="24" cy="140" r="97" fill="#4d4d4d" opacity="0.194" />
    <circle cx="756" cy="662" r="95" fill="#4d4d4d" opacity="0.094" />
    <circle cx="543" cy="518" r="215" fill="#4d4d4d" opacity="0.146" />
    <circle cx="13" cy="97" r="104" fill="#f97316" opacity="0.178" />
    <circle cx="22" cy="654" r="48" fill="#f97316" opacity="0.174" />
  </g>
  <g>
    <path d="M 217 633 Q 701 690 997 72" stroke="#f97316" stroke-width="6.18" fill="none" opacity="0.411" stroke-linecap="round" />
    <path d="M 312 88 Q 937 747 736 596" stroke="#4d4d4d" stroke-width="6.23" fill="none" opacity="0.282" stroke-linecap="round" />
    <path d="M 111 30 Q 255 78 188 484" stroke="#161616" stroke-width="5.68" fill="none" opacity="0.211" stroke-linecap="round" />
    <path d="M 1093 726 Q 288 695 583 488" stroke="#4d4d4d" stroke-width="7.40" fill="none" opacity="0.155" stroke-linecap="round" />
    <path d="M 729 457 Q 1129 282 1054 652" stroke="#f97316" stroke-width="6.16" fill="none" opacity="0.161" stroke-linecap="round" />
    <path d="M 82 660 Q 342 195 236 681" stroke="#f97316" stroke-width="8.77" fill="none" opacity="0.203" stroke-linecap="round" />
    <path d="M 247 226 Q 1011 505 782 76" stroke="#f97316" stroke-width="7.68" fill="none" opacity="0.380" stroke-linecap="round" />
    <path d="M 727 222 Q 294 320 7 174" stroke="#f97316" stroke-width="2.52" fill="none" opacity="0.159" stroke-linecap="round" />
  </g>
  <rect width="1200" height="800" fill="rgba(255,255,255,0.03)" />
</svg>
